<?xml version="1.0" encoding="utf-8"?>
<svg version="1.1" xmlns="http://www.w3.org/2000/svg" xmlns:xlink="http://www.w3.org/1999/xlink" x="0px" y="0px"
	 width="320px" height="56px" viewBox="0 0 320 56" xml:space="preserve">
<style type="text/css">
	.st0{fill-rule:evenodd;clip-rule:evenodd;fill:#ABC920;}
	.st1{fill-rule:evenodd;clip-rule:evenodd;fill:#0096E8;}
	.st2{fill-rule:evenodd;clip-rule:evenodd;fill:#37393F;}
	.st3{fill-rule:evenodd;clip-rule:evenodd;fill:#00751D;}
</style>
<g>
	<g>
		<path class="st0" d="M279.1,2.6l38.3,38.3c3.4,3.4,3.4,9,0,12.5c-3.4,3.4-9,3.4-12.5,0L266.7,15
			c-3.4-3.4-3.4-9,0-12.5S275.7-0.9,279.1,2.6L279.1,2.6z"/>
		<path class="st1" d="M266.7,40.9L305,2.6c3.4-3.4,9-3.4,12.5,0s3.4,9,0,12.5l-38.3,38.3c-3.4,3.4-9,3.4-12.5,0
			C263.2,49.9,263.2,44.3,266.7,40.9"/>
	</g>
	<g>
		<path class="st2" d="M5.5,18.5c2.8,0,3.8-1,3.8-3v-1.6c0-2.1-0.7-3.2-3.7-3.2H4v7.8H5.5z M5.5,7.2
			c5.3,0,7.8,1.9,7.8,6.5v2c0,4.5-2.6,6.6-7.8,6.6H4V29H0V7.2H5.5z"/>
		<path class="st2" d="M24.6,22.6V19c0-2.1-0.5-3.3-2.6-3.3c-2,0-2.6,1.2-2.6,3.3v3.6c0,2.1,0.5,3.3,2.6,3.3
			C24,25.8,24.6,24.6,24.6,22.6 M15.5,22.8v-4c0-4.4,2.1-6.5,6.5-6.5s6.5,2,6.5,6.5v4c0,4.5-2.1,6.5-6.5,6.5S15.5,27.3,15.5,22.8"/>
		<path class="st2" d="M39.8,17.5c0-1.3-1-1.8-2.2-1.8c-1.5,0-2.4,0.6-2.4,1.8c0,1.8,1.9,1.6,4.2,1.8
			c2.2,0.3,4.5,1.6,4.5,4.6c0,3.7-2.9,5.3-6.5,5.3c-4,0-6.4-2-6.4-5.3h3.9c0.1,1.2,0.7,1.8,2.6,1.8c1.6,0,2.4-0.9,2.4-1.7
			c0-1.4-1.8-1.4-3.9-1.7c-2.4-0.3-4.8-1.4-4.8-4.7c0-3.8,2.7-5.5,6.3-5.5c4.1,0,6.1,2.3,6.1,5.3h-3.8V17.5z"/>
		<path class="st2" d="M46.5,9.4L50.4,9v3.3h2.8v3.5h-2.8v7.1c0,1.8,0.3,3.1,2.9,2.8V29c-4.9,0.5-6.8-1.2-6.8-6.1
			C46.5,22.9,46.5,9.4,46.5,9.4z"/>
		<polygon class="st2" points="55.1,28.6 62.3,15.7 55.8,15.7 55.8,12.3 68.1,12.3 68.1,12.8 60.9,25.4 68.1,25.4 
			68.1,29 55.1,29 		"/>
		<path class="st2" d="M73.8,18.9h5.3c0-2.1-0.4-3.3-2.6-3.3C74.2,15.6,73.8,16.8,73.8,18.9L73.8,18.9z M82.9,23.9
			c0,3.5-2.1,5.2-6.5,5.2s-6.5-2-6.5-6.5v-3.8c0-4.2,2.1-6.5,6.5-6.5s6.5,2,6.5,6.5v3.3h-9.1v0.4c0,2.7,1.1,3.2,2.6,3.2
			c1.8,0,2.6-0.7,2.6-1.8H82.9z"/>
		<path id="Fill-18" class="st2" d="M94.8,22.3V19c0-1.9-0.6-3.4-2.6-3.4c-1.5,0-2.5,0.8-2.5,3.2v3.5c0,2.4,0.8,3.3,2.4,3.3
			C94.1,25.7,94.8,24.4,94.8,22.3 M85.8,22.8v-4.2c0-4.7,2.2-6.5,5.5-6.5c1.9,0,3.2,0.7,3.8,1.9l0.3-1.8h3.2v17.2
			c0,4.3-2.3,6.4-6.3,6.4c-4.1,0-6-1.8-6-5.3H90c0,1.3,0.8,2,2.3,2c2,0,2.7-1.1,2.7-3.1v-2c-0.6,0.9-1.6,1.7-3.5,1.7
			C87.9,29.1,85.8,27.1,85.8,22.8"/>
		<path class="st2" d="M105.7,18.9h5.3c0-2.1-0.4-3.3-2.6-3.3C106.1,15.6,105.7,16.8,105.7,18.9L105.7,18.9z
			 M114.7,23.9c0,3.5-2.1,5.2-6.5,5.2s-6.5-2-6.5-6.5v-3.8c0-4.2,2.1-6.5,6.5-6.5s6.5,2,6.5,6.5v3.3h-9.1v0.4c0,2.7,1.1,3.2,2.6,3.2
			c1.8,0,2.6-0.7,2.6-1.8H114.7z"/>
		<path class="st2" d="M118.2,7.1h3.9v15.7c0,1.8,0.3,2.4,2,2.4V29c-4.5,0-5.8-1.3-5.8-6.1L118.2,7.1L118.2,7.1z"/>
		<path id="Fill-24" class="st2" d="M127.2,12.3h3.4l0.2,1.7c1.1-1.2,2.5-1.8,3.9-1.8c2.8,0,5.5,1.4,5.5,6.5V29h-3.9V18.7
			c0-2.2-0.9-3-2.5-3c-1.5,0-2.7,0.7-2.7,2.9V29h-3.9C127.2,29,127.2,12.3,127.2,12.3z"/>
		<path class="st2" d="M144.1,29h3.9V12.6h-3.9V29z M148.3,8.9c0,2.8-4.4,2.9-4.4,0C143.9,6,148.3,6,148.3,8.9
			L148.3,8.9z"/>
		<path class="st2" d="M155.5,18.9h5.3c0-2.1-0.4-3.3-2.6-3.3C155.9,15.6,155.5,16.8,155.5,18.9L155.5,18.9z
			 M164.6,23.9c0,3.5-2.1,5.2-6.5,5.2s-6.5-2-6.5-6.5v-3.8c0-4.2,2.1-6.5,6.5-6.5s6.5,2,6.5,6.5v3.3h-9.1v0.4c0,2.7,1.1,3.2,2.6,3.2
			c1.8,0,2.6-0.7,2.6-1.8H164.6z"/>
		<path class="st2" d="M167.8,9.4l3.9-0.4v3.3h2.8v3.5h-2.8v7.1c0,1.8,0.3,3.1,2.9,2.8V29c-4.9,0.5-6.8-1.2-6.8-6.1
			L167.8,9.4L167.8,9.4z"/>
		<path class="st2" d="M177.7,12.3h3.4l0.2,1.7c1.1-1.2,2.5-1.8,3.9-1.8c2.8,0,5.5,1.4,5.5,6.5V29h-3.9V18.7
			c0-2.2-0.9-3-2.5-3c-1.5,0-2.7,0.7-2.7,2.9V29h-3.9V12.3z"/>
		<path class="st2" d="M203.1,22.6V19c0-2.1-0.5-3.3-2.6-3.3c-2,0-2.6,1.2-2.6,3.3v3.6c0,2.1,0.5,3.3,2.6,3.3
			C202.6,25.8,203.1,24.6,203.1,22.6 M194,22.8v-4c0-4.4,2.1-6.5,6.5-6.5s6.5,2,6.5,6.5v4c0,4.5-2.1,6.5-6.5,6.5S194,27.3,194,22.8"
			/>
		<path class="st2" d="M213.9,18.5v3.9c0,2.4,1,3.2,2.5,3.2c1.9,0,2.6-1.4,2.6-3.4v-3.8c0-2-1-2.8-2.5-2.8
			C214.8,15.7,213.9,16.5,213.9,18.5L213.9,18.5z M219.7,29l-0.3-1.8c-0.7,1.2-2,1.9-3.9,1.9c-3.3,0-5.5-1.8-5.5-6.5v-4.3
			c0-3.9,1.9-6.2,5.6-6.2c1.4,0,2.8,0.4,3.4,1.5V7.2h3.9V29H219.7z"/>
		<path class="st2" d="M227.1,29h3.9V12.6h-3.9V29z M231.3,8.9c0,2.8-4.4,2.9-4.4,0C226.9,6,231.3,6,231.3,8.9
			L231.3,8.9z"/>
		<path class="st2" d="M243.4,22.3V19c0-1.9-0.6-3.4-2.6-3.4c-1.5,0-2.5,0.8-2.5,3.2v3.5c0,2.4,0.8,3.3,2.4,3.3
			C242.8,25.7,243.4,24.4,243.4,22.3 M234.5,22.8v-4.2c0-4.7,2.2-6.5,5.5-6.5c1.9,0,3.2,0.7,3.8,1.9l0.3-1.8h3.2v17.2
			c0,4.3-2.3,6.4-6.3,6.4c-4.1,0-6-1.8-6-5.3h3.7c0,1.3,0.8,2,2.3,2c2,0,2.7-1.1,2.7-3.1v-2c-0.6,0.9-1.6,1.7-3.5,1.7
			C236.6,29.1,234.5,27.1,234.5,22.8"/>
	</g>
	<g>
		<g transform="translate(305.000000, 76.020000)">
			<path class="st1" d="M-148.3-34c-1,0-1.5,0.4-1.5,1.6v1.8c0,1.1,0.5,1.4,1.4,1.4c1,0,1.5-0.4,1.5-1.8v-1.5
				C-146.9-33.6-147.3-34-148.3-34L-148.3-34z M-145.8-28.1h-0.9l-0.1-0.9c-0.2,0.6-0.9,0.9-1.7,0.9c-1.4,0-2.3-0.6-2.3-2.5v-1.8
				c0-1.9,0.9-2.7,2.3-2.7c0.7,0,1.3,0.1,1.7,0.6v-2.9h1.1v9.3H-145.8z"/>
			<path class="st1" d="M-144-28.1h1.1V-35h-1.1V-28.1z M-142.8-36.6c0,0.8-1.4,0.9-1.4,0
				C-144.1-37.5-142.8-37.5-142.8-36.6L-142.8-36.6z"/>
			<path class="st1" d="M-137.5-31v-1.3c0-1.3-0.5-1.7-1.5-1.7c-0.9,0-1.4,0.3-1.4,1.4v2c0,1.1,0.5,1.5,1.3,1.5
				C-138.1-29.2-137.5-29.5-137.5-31 M-141.4-30.5v-2.1c0-1.9,1-2.5,2.3-2.5c0.8,0,1.5,0.3,1.7,0.9l0.1-0.9h0.9v7.1
				c0,1.9-1,2.6-2.6,2.6c-1.5,0-2.3-0.5-2.4-2.1h1.1c0.1,0.8,0.6,1,1.3,1c0.9,0,1.5-0.4,1.5-1.6V-29c-0.2,0.5-0.8,0.9-1.7,0.9
				C-140.6-28.1-141.4-28.9-141.4-30.5"/>
			<path class="st1" d="M-134.9-28.1h1.1V-35h-1.1V-28.1z M-133.6-36.6c0,0.8-1.4,0.9-1.4,0S-133.6-37.5-133.6-36.6
				L-133.6-36.6z"/>
			<path class="st1" d="M-132.1-36.3l1.1-0.1v1.4h1.2v1.1h-1.2v3.9c0,0.7,0.3,1,1.2,0.9v1c-1.8,0.2-2.3-0.6-2.3-1.9
				V-36.3z"/>
			<path id="Fill-40" class="st1" d="M-126.7-31.1c-0.8,0.2-1.2,0.5-1.1,1.2c0,0.5,0.5,0.7,1,0.7c1.2,0,1.6-0.9,1.6-2
				C-125.4-31.2-126.1-31.2-126.7-31.1L-126.7-31.1z M-124-28.1h-1l-0.1-0.9c-0.2,0.5-0.9,1-1.8,1c-1.6,0-2-0.8-2.1-1.7
				c-0.1-1.2,0.7-2.1,2.1-2.3c0.5-0.1,1.1-0.1,1.7-0.1v-0.7c0-0.8-0.3-1.3-1.3-1.3c-0.7,0-1.1,0.2-1.1,1.2h-1.1
				c0-1.5,0.8-2.2,2.2-2.2c1.5,0,2.4,0.6,2.4,2.3v4.7H-124z"/>
			<path class="st1" d="M-122.4-37.3h1.1v7.3c0,0.6,0.2,0.7,0.7,0.7v1.1c-1.3,0-1.8-0.3-1.8-1.8
				C-122.4-30-122.4-37.3-122.4-37.3z"/>
			<path class="st1" d="M-118.5-32.1h2.9v-0.5c0-1.2-0.6-1.5-1.5-1.5s-1.4,0.2-1.4,1.5V-32.1z M-114.5-30.1
				c0,1.3-0.7,2.1-2.5,2.1s-2.6-0.7-2.6-2.5v-2c0-1.8,1-2.5,2.6-2.5c1.5,0,2.6,0.7,2.6,2.5v1.5h-4v0.5c0,1.2,0.4,1.5,1.4,1.5
				s1.4-0.3,1.4-1h1.1V-30.1z"/>
			<path class="st1" d="M-110-35.1h0.9l0.1,0.8c0.4-0.6,1.1-0.8,1.8-0.8c0.9,0,1.6,0.3,1.9,0.9
				c0.4-0.6,1.1-0.9,2.1-0.9c1.5,0,2.3,0.6,2.3,2.5v4.5h-1.1v-4.5c0-1-0.5-1.4-1.3-1.4c-1,0-1.5,0.5-1.5,1.8v4.2h-1.1v-4.5
				c0-1.2-0.5-1.4-1.4-1.4s-1.5,0.4-1.5,1.4v4.5h-1.1v-7.1H-110z"/>
			<path class="st1" d="M-97.3-31.1c-0.8,0.2-1.2,0.5-1.1,1.2c0,0.5,0.5,0.7,1,0.7c1.2,0,1.6-0.9,1.6-2
				C-96-31.2-96.7-31.2-97.3-31.1L-97.3-31.1z M-94.6-28.1h-1l-0.1-0.9c-0.2,0.5-0.9,1-1.8,1c-1.6,0-2-0.8-2.1-1.7
				c-0.1-1.2,0.7-2.1,2.1-2.3c0.5-0.1,1.1-0.1,1.7-0.1v-0.7c0-0.8-0.3-1.3-1.3-1.3c-0.7,0-1.1,0.2-1.1,1.2h-1.1
				c0-1.5,0.8-2.2,2.2-2.2c1.5,0,2.4,0.6,2.4,2.3v4.7H-94.6z"/>
			<path class="st1" d="M-90-33.9c-1.1-0.2-1.9,0.3-1.9,1.3v4.4H-93v-6.9h1v0.6c0.3-0.5,1.1-0.8,2-0.6V-33.9z"/>
			<polygon class="st1" points="-85.1,-28.1 -87.4,-31.2 -87.9,-31.2 -87.9,-28.1 -89,-28.1 -89,-37.3 -87.9,-37.3 
				-87.9,-32.3 -87.5,-32.3 -85.3,-35.1 -84,-35.1 -86.5,-31.8 -83.7,-28.1 			"/>
			<path class="st1" d="M-82-32.1h2.9v-0.5c0-1.2-0.6-1.5-1.5-1.5s-1.4,0.2-1.4,1.5V-32.1z M-78-30.1
				c0,1.3-0.7,2.1-2.5,2.1s-2.6-0.7-2.6-2.5v-2c0-1.8,1-2.5,2.6-2.5c1.5,0,2.6,0.7,2.6,2.5v1.5h-4v0.5c0,1.2,0.4,1.5,1.4,1.5
				s1.4-0.3,1.4-1h1.1V-30.1z"/>
			<path class="st1" d="M-76.7-36.3l1.1-0.1v1.4h1.2v1.1h-1.2v3.9c0,0.7,0.3,1,1.2,0.9v1c-1.8,0.2-2.3-0.6-2.3-1.9
				C-76.7-30-76.7-36.3-76.7-36.3z"/>
			<path class="st1" d="M-73.1-28.1h1.1V-35h-1.1V-28.1z M-71.9-36.6c0,0.8-1.4,0.9-1.4,0
				C-73.2-37.5-71.9-37.5-71.9-36.6L-71.9-36.6z"/>
			<path class="st1" d="M-70.2-35.1h1l0.1,0.7c0.4-0.7,1.1-0.8,1.8-0.8c1.5,0,2.3,0.7,2.3,2.5v4.5h-1.1v-4.5
				c0-1-0.5-1.5-1.3-1.5c-0.9,0-1.5,0.5-1.5,1.5v4.5H-70v-6.9H-70.2z"/>
			<path class="st1" d="M-59.7-31v-1.3c0-1.3-0.5-1.7-1.5-1.7c-0.9,0-1.4,0.3-1.4,1.4v2c0,1.1,0.5,1.5,1.3,1.5
				C-60.3-29.2-59.7-29.5-59.7-31 M-63.7-30.5v-2.1c0-1.9,1-2.5,2.3-2.5c0.8,0,1.5,0.3,1.7,0.9l0.1-0.9h0.9v7.1c0,1.9-1,2.6-2.6,2.6
				c-1.5,0-2.3-0.5-2.4-2.1h1.1c0.1,0.8,0.6,1,1.3,1c0.9,0,1.5-0.4,1.5-1.6V-29c-0.2,0.5-0.8,0.9-1.7,0.9
				C-62.8-28.1-63.7-28.9-63.7-30.5"/>
		</g>
	</g>
	<polygon class="st3" points="292.1,40.5 304.5,28 292.1,15.5 279.6,28"/>
</g>
</svg>